<?xml version="1.0" encoding="UTF-8"?>
<svg version="1.1" xmlns="http://www.w3.org/2000/svg" width="86" height="29">
<path d="M0 0 C13.2 0 26.4 0 40 0 C40.495 1.485 40.495 1.485 41 3 C39.35 6.3 37.7 9.6 36 13 C22.8 13 9.6 13 -4 13 C-5 9 -5 9 0 0 Z " fill="#000000" transform="translate(6,0)"/>
<path d="M0 0 C0.99 0.103125 1.98 0.20625 3 0.3125 C3.66 1.3025 4.32 2.2925 5 3.3125 C5.66 2.3225 6.32 1.3325 7 0.3125 C10 0 10 0 13 0.3125 C15 2.3125 15 2.3125 15.25 4.8125 C15 7.3125 15 7.3125 13 9.3125 C9.4375 9.0625 9.4375 9.0625 6 8.3125 C5.67 7.6525 5.34 6.9925 5 6.3125 C4.01 7.7975 4.01 7.7975 3 9.3125 C0 9.625 0 9.625 -3 9.3125 C-5 7.3125 -5 7.3125 -5.25 4.8125 C-4.86676958 0.9801958 -3.75087075 0.3907157 0 0 Z " fill="#000000" transform="translate(27,14.6875)"/>
<path d="M0 0 C4.95 0 9.9 0 15 0 C15 2.97 15 5.94 15 9 C10.05 9 5.1 9 0 9 C0 6.03 0 3.06 0 0 Z " fill="#000000" transform="translate(0,15)"/>
<path d="M0 0 C3.96 0 7.92 0 12 0 C12 1.65 12 3.3 12 5 C9.03 5 6.06 5 3 5 C2.67 4.01 2.34 3.02 2 2 C1.01 3.485 1.01 3.485 0 5 C0 3.35 0 1.7 0 0 Z " fill="#000000" transform="translate(53,19)"/>
<path d="M0 0 C1.32 0 2.64 0 4 0 C3.67 0.66 3.34 1.32 3 2 C2.34 1.67 1.68 1.34 1 1 C1 1.66 1 2.32 1 3 C2.32 3 3.64 3 5 3 C5 2.01 5 1.02 5 0 C6.32 0 7.64 0 9 0 C9 1.65 9 3.3 9 5 C6.03 5 3.06 5 0 5 C-0.33 3.68 -0.66 2.36 -1 1 C-0.67 0.67 -0.34 0.34 0 0 Z " fill="#000000" transform="translate(68,19)"/>
<path d="M0 0 C2.31 0 4.62 0 7 0 C7 1.65 7 3.3 7 5 C5.68 5 4.36 5 3 5 C2.67 4.01 2.34 3.02 2 2 C1.01 3.485 1.01 3.485 0 5 C0 3.35 0 1.7 0 0 Z " fill="#000000" transform="translate(78,19)"/>
<path d="M0 0 C1.98 0 3.96 0 6 0 C5.01 0.495 5.01 0.495 4 1 C4 2.98 4 4.96 4 7 C3.34 7 2.68 7 2 7 C2 5.02 2 3.04 2 1 C1.34 0.67 0.68 0.34 0 0 Z " fill="#000000" transform="translate(47,17)"/>
</svg>
